<svg width="144" height="148" viewBox="0 0 144 148" fill="none" xmlns="http://www.w3.org/2000/svg">
<path fill-rule="evenodd" clip-rule="evenodd" d="M49.1771 22.7226C51.6771 24.2883 54.1658 26.153 56.5916 28.3464C53.1958 22.6491 49.0282 17.1765 43.9896 12.5734C35.5398 4.84729 24.3373 0.856384 12.8931 0.856384C4.7501 0.856384 0.275635 6.32896 0.275635 12.4447C0.298061 15.1253 1.10991 17.7398 2.60973 19.9616L12.0718 34.2871V34.2978L13.9316 37.1294H13.9487L22.1242 49.5284L29.6256 60.875C29.6256 60.875 29.6256 60.892 29.6411 60.892L31.6566 63.9501C31.7297 64.0658 31.8038 64.1804 31.879 64.294L63.2002 111.72C64.1224 113.121 65.3795 114.27 66.8576 115.062C68.3358 115.855 69.9883 116.267 71.6656 116.259C73.3401 116.265 74.9897 115.853 76.465 115.061C77.9404 114.269 79.195 113.122 80.1155 111.723L111.452 64.2971L111.517 64.1994C116.571 56.4423 116.748 43.6311 105.755 40.9111C99.6872 39.3907 82.7394 43.6079 75.5449 59.5095C75.3517 59.9135 75.1745 60.316 75.0133 60.7169L74.9498 60.8626L74.9172 60.9587C81.2779 59.9141 86.9121 56.2867 87.5558 55.8724L87.5998 55.8441L71.6656 84.0517L55.7144 55.841L55.7696 55.8761C56.4654 56.3202 62.0869 59.9078 68.4124 60.9556L68.3799 60.8595L68.3644 60.8114L68.3489 60.7944L68.321 60.7264C68.1521 60.315 67.9831 59.9031 67.7847 59.5064C67.5595 58.9908 67.3182 58.4923 67.061 58.0108C66.8672 57.6233 66.658 57.2545 66.4488 56.8996C66.2534 56.5189 66.0387 56.1486 65.8056 55.7899C65.5312 55.3388 65.2538 54.9188 64.9516 54.4849C64.6494 54.0509 64.344 53.6169 64.0217 53.1985C63.5397 52.5708 63.0406 51.9586 62.509 51.3789L62.4765 51.3464C62.1866 51.0178 61.9015 50.7078 61.5915 50.3979C59.6032 48.3498 57.3566 46.5696 54.9085 45.102C54.2482 44.716 53.588 44.3456 52.9293 44.0078C52.1233 43.6048 51.3184 43.2344 50.5146 42.8965C50.1161 42.724 49.7104 42.5698 49.3176 42.4206L49.3175 42.4205L49.3174 42.4205C49.1984 42.3753 49.0807 42.3305 48.9647 42.2859C44.281 40.6275 40.0313 40.2819 37.5685 40.9018C36.7715 41.0936 35.9933 41.3571 35.2437 41.6892C31.3001 43.4588 29.266 46.8258 28.6707 50.6453C29.2657 46.8237 31.3001 43.4524 35.2454 41.6768C35.995 41.3447 36.7731 41.0812 37.5702 40.8894C40.033 40.2772 44.2827 40.6151 48.9664 42.2735C49.064 42.3107 49.1626 42.348 49.262 42.3856C49.6755 42.5419 50.1014 42.7029 50.5163 42.8841C51.3201 43.222 52.125 43.5924 52.9309 43.9954C53.5896 44.3332 54.2499 44.7036 54.9101 45.0896C57.3627 46.5563 59.6135 48.3366 61.6056 50.3855C61.8976 50.6775 62.1754 50.9851 62.4527 51.2921L62.4905 51.334L62.5231 51.3665C63.0547 51.9462 63.5537 52.5661 64.0357 53.1861C64.355 53.6045 64.6758 54.0369 64.9657 54.4725L65.0067 54.534C65.0319 54.5718 65.0571 54.6095 65.0823 54.647C65.1114 54.6904 65.1404 54.7336 65.1694 54.7768L65.1695 54.7769C65.3907 55.1062 65.6097 55.4323 65.8196 55.7774C66.0528 56.1361 66.2675 56.5065 66.4628 56.8871C66.6721 57.2421 66.8813 57.6109 67.075 57.9984C67.5522 58.9055 67.982 59.8367 68.363 60.7882L68.3785 60.8052C67.4284 53.6743 64.4356 43.0189 58.9475 32.5744C58.2067 31.1578 57.4178 29.735 56.5809 28.3401C54.1587 26.1497 51.6736 24.287 49.1771 22.7226ZM14.4874 20.5102C14.5281 20.4663 14.5692 20.4228 14.6105 20.38C14.6377 20.347 14.6656 20.3146 14.694 20.2826C14.6241 20.3575 14.5552 20.4334 14.4874 20.5102ZM14.8592 20.1093C14.8884 20.0807 14.9182 20.0527 14.9484 20.0251C14.9831 19.9876 15.0183 19.9506 15.0541 19.9141C14.9883 19.9784 14.9234 20.0435 14.8592 20.1093ZM15.4267 19.5658C15.4334 19.5607 15.44 19.5558 15.4466 19.5509C15.4629 19.5388 15.4792 19.5268 15.4955 19.5106C15.6721 19.3556 15.8659 19.1882 16.0581 19.0456C16.0984 19.0131 16.1425 18.9809 16.1867 18.9487L16.1867 18.9487C16.2309 18.9166 16.2751 18.8844 16.3153 18.8519C16.5571 18.6752 16.8144 18.4985 17.0717 18.3373C17.1052 18.3229 17.136 18.3029 17.1628 18.2783C16.5388 18.661 15.9588 19.0903 15.4267 19.5658ZM17.2217 18.2425C17.479 18.0962 17.7504 17.9422 18.0217 17.8073C18.2722 17.6679 18.531 17.5442 18.7967 17.4368C19.049 17.316 19.3077 17.2089 19.5716 17.116C19.7483 17.0509 19.9265 16.9874 20.1032 16.9378C20.2182 16.8919 20.3344 16.849 20.4516 16.8093C19.278 17.1737 18.1967 17.6517 17.2217 18.2425ZM21.0341 16.6399C21.0508 16.6358 21.0675 16.6318 21.0843 16.6278C21.1074 16.621 21.1306 16.6143 21.1538 16.6078C21.1138 16.6183 21.0739 16.629 21.0341 16.6399ZM21.6628 16.4812C21.7702 16.4581 21.8781 16.4373 21.9863 16.4186C22.3648 16.332 22.7511 16.2602 23.1446 16.1965C22.638 16.274 22.1438 16.3689 21.6628 16.4812ZM86.74 28.3464C91.1944 24.3188 95.8611 21.3991 100.42 19.4048C95.8624 21.3995 91.1982 24.3194 86.7476 28.3464C79.7298 40.0804 76.0349 52.763 74.95 60.8595L75.0135 60.7138C81.8856 43.814 99.5433 39.3566 105.763 40.9018C116.756 43.6218 116.579 56.433 111.525 64.1901L125.431 43.1228L131.258 34.3025L131.263 34.2829L140.722 19.9616C142.222 17.7398 143.034 15.1253 143.056 12.4447C143.056 6.32896 138.581 0.856384 130.438 0.856384C118.994 0.856384 107.792 4.84729 99.3419 12.5734C94.3033 17.1765 90.1357 22.6491 86.74 28.3464Z" fill="white"/>
<path d="M23.0076 123.438L15.7635 146.784H8.46052L0.884766 123.438H8.43107L12.126 136.164C12.377 136.916 12.6002 137.656 12.7955 138.387L17.1103 123.438H23.0076Z" fill="white"/>
<path d="M36.8586 147.144C33.575 147.144 30.8983 146.055 28.8287 143.876C26.7592 141.698 25.7259 138.785 25.729 135.137C25.729 131.648 26.7178 128.766 28.6955 126.492C30.6731 124.217 33.4184 123.081 36.9315 123.082C40.182 123.082 42.8302 124.153 44.8761 126.296C46.9219 128.439 47.9453 131.301 47.9464 134.883C47.9464 138.588 46.9131 141.558 44.8466 143.793C42.7801 146.028 40.1175 147.145 36.8586 147.144ZM36.8245 141.842C38.0313 141.842 38.9008 141.314 39.4329 140.259C39.9651 139.204 40.2301 137.275 40.228 134.47C40.228 130.411 39.139 128.381 36.9609 128.382C34.6113 128.382 33.437 130.697 33.438 135.326C33.438 139.671 34.5669 141.843 36.8245 141.842Z" fill="white"/>
<path d="M69.5779 141.056V146.79H53.2097V123.438H60.3763V141.056H69.5779Z" fill="white"/>
<path d="M87.189 146.784L85.87 142.184H79.6163L78.2214 146.784H72.4048L79.6117 123.438H87.1874L94.5105 146.784H87.189ZM80.8345 137.087H84.6115L82.7222 130.315L80.8345 137.087Z" fill="white"/>
<path d="M119.674 146.784H111.731L108.321 137.857H106.062V146.784H98.8967V123.438H111.091C113.778 123.438 115.867 124.069 117.359 125.329C118.851 126.59 119.595 128.252 119.591 130.315C119.616 131.553 119.334 132.778 118.771 133.88C118.222 134.913 117.116 135.822 115.452 136.608L119.674 146.784ZM106.06 132.863H109.123C110.023 132.863 110.746 132.675 111.293 132.299C111.839 131.923 112.113 131.37 112.114 130.639C112.114 129.147 111.196 128.401 109.36 128.4H106.059L106.06 132.863Z" fill="white"/>
<path d="M142.868 141.209V146.789H125.303V123.438H142.868V128.826H132.329V132.212H140.853V137.395H132.329V141.209H142.868Z" fill="white"/>
</svg>
