<svg width="330" height="338" viewBox="0 0 330 338" fill="none" xmlns="http://www.w3.org/2000/svg">
<path d="M165 266.722C161.131 266.738 157.319 265.789 153.909 263.96C150.5 262.132 147.6 259.482 145.473 256.25L73.2231 146.851C62.2689 130.313 61.0427 103.656 80.9847 94.7079C82.7139 93.9421 84.5087 93.3342 86.3474 92.8918C92.0283 91.4617 101.831 92.259 112.635 96.0843C113.786 96.5277 115.013 96.9746 116.21 97.4929C118.065 98.2723 119.921 99.1268 121.78 100.056C123.3 100.836 124.823 101.69 126.346 102.58C131.993 105.966 137.175 110.072 141.762 114.797C142.477 115.512 143.135 116.227 143.803 116.985L143.878 117.06C145.105 118.397 146.256 119.809 147.368 121.257C148.111 122.222 148.816 123.223 149.513 124.224C150.21 125.225 150.85 126.194 151.483 127.234C152.02 128.062 152.516 128.916 152.966 129.794C153.449 130.613 153.932 131.464 154.378 132.358C154.972 133.468 155.528 134.618 156.048 135.808C156.531 136.773 156.938 137.777 157.349 138.778L157.385 138.818L157.421 138.929L157.496 139.15C142.387 136.648 129.02 127.864 128.205 127.352L165 192.427L201.756 127.36C200.941 127.878 187.609 136.676 172.501 139.157L172.576 138.936L172.722 138.6C173.094 137.675 173.503 136.747 173.949 135.815C190.544 99.1339 229.638 89.406 243.635 92.9132C268.993 99.1876 268.586 128.74 256.927 146.633L256.777 146.858L184.492 256.257C182.368 259.484 179.474 262.131 176.071 263.958C172.668 265.785 168.863 266.735 165 266.722Z" fill="#22B3B2"/>
<path d="M73.2234 146.837L68.0609 139.004C68.0252 139.004 68.0252 138.964 68.0252 138.964L50.7216 112.791L31.8628 84.1899H31.8234L27.5333 77.6581V77.6188C26.6526 73.8197 26.1922 69.9352 26.1605 66.0354C26.1527 64.961 26.2016 63.887 26.307 62.8178C26.3673 61.7715 26.4866 60.7295 26.6645 59.6967C26.8504 58.6957 27.0221 57.7304 27.2938 56.7651C27.5655 55.7998 27.8515 54.9096 28.1875 54.0552C28.4843 53.2758 28.781 52.4964 29.1135 51.7885C29.5527 50.9114 30.0359 50.057 30.5614 49.2288C30.6682 49.0352 30.7877 48.8489 30.919 48.671C31.2318 48.1535 31.5793 47.6578 31.9593 47.1873C32.4062 46.6296 32.8888 46.0719 33.3894 45.5535C33.6296 45.2626 33.89 44.9891 34.1687 44.7348C34.4956 44.3823 34.8417 44.0481 35.2055 43.7338C35.2806 43.6587 35.3557 43.6229 35.4308 43.5479C35.8383 43.1904 36.2852 42.8042 36.7285 42.4753C36.9144 42.3252 37.1361 42.1786 37.322 42.0284C37.8797 41.6209 38.4732 41.2133 39.0667 40.8415C39.1502 40.8055 39.2265 40.7546 39.2919 40.6913C39.9211 40.3338 40.5897 39.9513 41.2582 39.6188C41.8359 39.2974 42.4329 39.012 43.0458 38.7643C43.6278 38.4856 44.2246 38.2385 44.8333 38.0243C45.2409 37.8741 45.652 37.7276 46.0596 37.6131C46.7953 37.3194 47.5517 37.0804 48.3227 36.8981C49.0065 36.6978 49.7012 36.5367 50.4034 36.4155C51.7012 36.1188 53.0382 35.8971 54.4111 35.7005C74.7214 33.1764 104.052 40.2659 130.204 63.9154C132.134 67.133 133.954 70.4149 135.663 73.6826C148.323 97.7754 155.226 122.354 157.418 138.804L157.382 138.764C156.503 136.569 155.512 134.421 154.411 132.329C153.964 131.435 153.481 130.584 152.999 129.766C152.548 128.888 152.053 128.033 151.515 127.206C150.882 126.165 150.214 125.2 149.545 124.196C148.877 123.191 148.137 122.193 147.4 121.228C146.288 119.798 145.137 118.368 143.911 117.031L143.836 116.956C143.167 116.216 142.499 115.472 141.794 114.768C137.199 110.042 132.007 105.935 126.35 102.552C124.827 101.662 123.304 100.807 121.784 100.028C119.925 99.0982 118.069 98.2437 116.214 97.4643C115.027 96.9459 113.801 96.4991 112.639 96.0557C101.835 92.2304 92.0322 91.451 86.3513 92.8632C84.5126 93.3056 82.7177 93.9135 80.9886 94.6793C61.043 103.656 62.2692 130.313 73.2234 146.837Z" fill="#FFED00"/>
<path d="M172.723 138.593L172.576 138.929C175.079 120.252 183.602 90.9969 199.79 63.9297C225.928 40.2802 255.258 33.1836 275.583 35.7148C295.907 38.246 308.07 52.4571 302.464 77.6689L289.022 98.0149L256.946 146.612C268.604 128.718 269.012 99.1661 243.653 92.8918C229.306 89.3274 188.575 99.6094 172.723 138.593Z" fill="#FFED00"/>
<path d="M275.565 35.7148C255.258 33.1908 225.928 40.2802 199.772 63.9297C207.605 50.7875 217.219 38.1638 228.841 27.5456C248.333 9.72364 274.174 0.5177 300.573 0.5177C319.356 0.5177 329.678 13.1415 329.678 27.2489C329.626 33.4322 327.753 39.4632 324.294 44.5883L302.446 77.6653C308.052 52.4571 295.875 38.2388 275.565 35.7148Z" fill="#5DB130"/>
<path d="M54.4356 35.7148C74.7423 33.1908 104.073 40.2802 130.228 63.9297C122.395 50.7875 112.782 38.1638 101.159 27.5456C81.6674 9.72364 55.8263 0.5177 29.4276 0.5177C10.6439 0.5177 0.32251 13.1415 0.32251 27.2489C0.374242 33.4322 2.24695 39.4632 5.70665 44.5883L27.5542 77.6653C21.9484 52.4571 34.1253 38.2388 54.4356 35.7148Z" fill="#5DB130"/>
<path d="M52.7591 283.281L36.049 337.134H19.203L1.72778 283.281H19.1351L27.6582 312.637C28.2374 314.37 28.7522 316.078 29.2026 317.764L39.1558 283.281H52.7591Z" fill="white"/>
<path d="M84.7096 337.963C77.1351 337.963 70.9609 335.451 66.1869 330.427C61.4129 325.402 59.0295 318.682 59.0366 310.266C59.0366 302.218 61.3176 295.57 65.8794 290.324C70.4413 285.078 76.774 282.457 84.8777 282.459C92.3759 282.459 98.4846 284.931 103.204 289.874C107.923 294.817 110.284 301.419 110.286 309.68C110.286 318.227 107.903 325.078 103.136 330.233C98.369 335.389 92.2269 337.965 84.7096 337.963ZM84.631 325.732C87.4148 325.732 89.4205 324.516 90.6479 322.082C91.8754 319.649 92.4867 315.198 92.4819 308.729C92.4819 299.365 89.9698 294.684 84.9456 294.686C79.5257 294.686 76.8169 300.025 76.8193 310.703C76.8193 320.725 79.4232 325.735 84.631 325.732Z" fill="white"/>
<path d="M160.184 323.92V337.148H122.427V283.281H138.959V323.92H160.184Z" fill="white"/>
<path d="M200.809 337.134L197.766 326.523H183.341L180.123 337.134H166.706L183.33 283.281H200.805L217.698 337.134H200.809ZM186.151 314.764H194.863L190.505 299.144L186.151 314.764Z" fill="white"/>
<path d="M275.743 337.134H257.421L249.555 316.541H244.343V337.134H227.815V283.281H255.944C262.141 283.281 266.96 284.735 270.402 287.643C273.843 290.551 275.56 294.385 275.55 299.144C275.609 301.999 274.959 304.825 273.659 307.367C272.393 309.751 269.842 311.848 266.004 313.659L275.743 337.134ZM244.339 305.022H251.404C253.48 305.022 255.148 304.588 256.409 303.721C257.67 302.853 258.301 301.577 258.304 299.892C258.304 296.45 256.186 294.728 251.951 294.725H244.336L244.339 305.022Z" fill="white"/>
<path d="M329.245 324.274V337.144H288.728V283.281H329.245V295.709H304.934V303.52H324.597V315.476H304.934V324.274H329.245Z" fill="white"/>
</svg>
