<svg width="21" height="19" viewBox="0 0 21 19" fill="none" xmlns="http://www.w3.org/2000/svg">
<path d="M0.756348 1.6243V1.21228C0.910368 0.870343 1.15063 0.627031 1.55776 0.620022C2.10812 0.610343 2.65884 0.610343 3.20989 0.620022C3.41113 0.619525 3.6053 0.692367 3.75432 0.824254C3.90334 0.95614 3.99646 1.13756 4.01541 1.33293C4.06367 1.7835 4.09652 2.24058 4.13862 2.69365C4.1725 3.06562 4.2105 3.43759 4.24798 3.82709H19.402C19.4852 3.82709 19.5683 3.82709 19.6515 3.83009C20.1839 3.85563 20.5325 4.3102 20.4088 4.81934C20.342 5.09219 20.2707 5.36353 20.2034 5.63488C19.7304 7.47688 19.257 9.31838 18.7834 11.1594C18.6719 11.5914 18.3844 11.8017 17.9255 11.8172C17.6313 11.8277 17.3376 11.8477 17.0434 11.8673C15.8549 11.9374 14.6669 12.01 13.4784 12.078C12.277 12.1466 11.0752 12.2097 9.87381 12.2783C8.62796 12.3491 7.38212 12.4211 6.13627 12.4946C5.80718 12.5136 5.4786 12.5356 5.14129 12.5566C5.36565 13.0938 5.90831 13.4323 6.52387 13.4323C9.48961 13.4323 12.4552 13.4323 15.4206 13.4323C15.5994 13.432 15.7781 13.4445 15.955 13.4698C17.1872 13.6505 18.1457 14.9046 17.964 16.0991C17.7524 17.4904 16.5547 18.3705 15.1244 18.1858C13.8922 18.0266 12.9167 16.784 13.0851 15.5825C13.1118 15.3947 13.1524 15.2085 13.1878 15.0273H8.81364C9.00001 15.6055 9 16.1627 8.77257 16.7094C8.62666 17.0674 8.39408 17.3856 8.09468 17.6369C7.79528 17.8882 7.43796 18.0651 7.05323 18.1525C6.6685 18.2399 6.2678 18.2352 5.88533 18.1388C5.50287 18.0425 5.15 17.8573 4.85687 17.599C4.48506 17.2785 4.22382 16.8538 4.10884 16.383C3.92761 15.6411 4.10217 14.9662 4.55191 14.3514C3.83315 13.7657 3.45426 13.0297 3.37827 12.1401C3.30092 11.239 3.22049 10.3378 3.13698 9.4367C3.02814 8.2562 2.91262 7.0762 2.80378 5.89621C2.69494 4.71621 2.59175 3.54723 2.4901 2.37224C2.47881 2.24508 2.42849 2.20203 2.2986 2.20704C2.07476 2.21555 1.8504 2.21104 1.62604 2.20704C1.23586 2.20253 0.95349 2.03732 0.804604 1.67737C0.790723 1.65788 0.774527 1.64007 0.756348 1.6243Z" fill="#0A2827"/>
</svg>
