<svg width="21" height="21" viewBox="0 0 21 21" fill="none" xmlns="http://www.w3.org/2000/svg">
<path d="M10.5392 20.8131C7.89929 20.8131 5.36714 19.7643 3.50051 17.8975C1.63377 16.0306 0.584961 13.4988 0.584961 10.8588C0.584961 8.21884 1.63377 5.68669 3.50051 3.82006C5.36741 1.95332 7.89929 0.90451 10.5392 0.90451C13.1792 0.90451 15.7113 1.95332 17.578 3.82006C19.4447 5.68696 20.4935 8.21884 20.4935 10.8588C20.4903 13.4979 19.4406 16.0282 17.5745 17.894C15.7084 19.7602 13.178 20.8099 10.5392 20.8131ZM14.378 8.29857C14.5525 8.12996 14.652 7.89818 14.6542 7.65548C14.6563 7.41278 14.5608 7.17934 14.3892 7.00768C14.2176 6.83603 13.9841 6.7406 13.7414 6.74272C13.4987 6.74484 13.2671 6.84437 13.0985 7.0189L10.5392 9.57904L7.98003 7.0189C7.75021 6.79695 7.42039 6.71257 7.11211 6.7971C6.80397 6.88164 6.56325 7.12236 6.4787 7.43051C6.39417 7.7388 6.47855 8.06861 6.7005 8.29843L9.25971 10.8586L6.7005 13.4187C6.52597 13.5873 6.42644 13.819 6.42432 14.0617C6.4222 14.3044 6.51764 14.5378 6.68928 14.7095C6.86093 14.8811 7.09437 14.9765 7.33708 14.9744C7.57977 14.9723 7.81139 14.8728 7.98002 14.6982L10.5392 12.1381L13.0985 14.6982C13.2671 14.8728 13.4987 14.9723 13.7414 14.9744C13.9841 14.9765 14.2175 14.8811 14.3892 14.7095C14.5608 14.5378 14.6563 14.3044 14.6542 14.0617C14.652 13.819 14.5525 13.5874 14.378 13.4187L11.8188 10.8586L14.378 8.29857Z" fill="#DB0505"/>
</svg>
