<svg width="11" height="18" viewBox="0 0 11 18" fill="none" xmlns="http://www.w3.org/2000/svg">
<path d="M0.234375 5.73188V16.8772C0.234375 17.1469 0.453002 17.3655 0.722673 17.3655H3.36762C3.46171 17.3655 3.5538 17.3383 3.6328 17.2872C3.7118 17.2361 3.77436 17.1633 3.81295 17.0775C4.12771 16.3776 4.8263 15.9254 5.59267 15.9254C6.35903 15.9254 7.05763 16.3776 7.37238 17.0775C7.41097 17.1633 7.47352 17.2361 7.55253 17.2872C7.63153 17.3383 7.72362 17.3655 7.81771 17.3655H10.4627C10.7324 17.3655 10.951 17.1469 10.951 16.8772V5.73188H0.234375Z" fill="#0A2827"/>
<path d="M10.4627 0.716946H7.81774C7.72365 0.71694 7.63157 0.744122 7.55256 0.795221C7.47356 0.846321 7.411 0.91916 7.37242 1.00498C7.05766 1.70484 6.35907 2.15703 5.5927 2.15703C4.82633 2.15703 4.12774 1.70481 3.81298 1.00494C3.77438 0.919139 3.71181 0.846312 3.6328 0.79522C3.5538 0.744128 3.46171 0.716947 3.36762 0.716946H0.722673C0.453002 0.716946 0.234375 0.935573 0.234375 1.20524V4.77399H10.951V1.20524C10.951 0.935573 10.7324 0.716946 10.4627 0.716946Z" fill="#0A2827"/>
</svg>
