<svg width="36" height="35" viewBox="0 0 36 35" fill="none" xmlns="http://www.w3.org/2000/svg">
<path d="M34.9164 21.7354L13.3957 0.21464C13.1193 -0.0617402 12.6711 -0.0617402 12.3946 0.21464L10.8062 1.80305C10.6004 2.00893 10.5415 2.31981 10.6579 2.58659C11.0612 3.51113 11.2028 4.52664 11.0674 5.52335C10.9056 6.71484 10.3693 7.79522 9.51688 8.64776C8.66434 9.50021 7.58396 10.0365 6.39247 10.1983C5.39584 10.3336 4.38033 10.192 3.45578 9.78873C3.189 9.67238 2.87812 9.73123 2.67224 9.93703L1.08375 11.5254C0.80737 11.8019 0.80737 12.2501 1.08375 12.5265L22.6045 34.0472C22.8809 34.3236 23.3292 34.3236 23.6055 34.0472L25.1939 32.4589C25.3997 32.2529 25.4586 31.942 25.3422 31.6753C24.939 30.7508 24.7973 29.7352 24.9328 28.7386C25.0946 27.5471 25.6308 26.4667 26.4833 25.6142C27.3358 24.7617 28.4162 24.2255 29.6077 24.0637C30.6043 23.9283 31.6198 24.0699 32.5443 24.4732C32.8112 24.5896 33.1221 24.5308 33.3279 24.3249L34.9163 22.7366C35.1929 22.46 35.1929 22.0118 34.9164 21.7354ZM26.6231 19.9042L20.7733 25.754C20.5339 25.9933 20.1459 25.9933 19.9066 25.754L9.37722 15.2243C9.13788 14.9851 9.13788 14.5969 9.37722 14.3577L15.2269 8.50794C15.4663 8.2686 15.8544 8.2686 16.0936 8.50794L26.6232 19.0374C26.8625 19.2768 26.8625 19.6649 26.6231 19.9042Z" fill="white"/>
</svg>
