<svg width="25" height="21" viewBox="0 0 25 21" fill="none" xmlns="http://www.w3.org/2000/svg">
<path fill-rule="evenodd" clip-rule="evenodd" d="M6.98339 1.48931C6.80049 1.48931 6.62508 1.56197 6.49575 1.6913C6.36643 1.82062 6.29377 1.99603 6.29377 2.17893V4.93739C6.29377 5.12028 6.36643 5.29569 6.49575 5.42502C6.62508 5.55434 6.80049 5.627 6.98339 5.627C7.16628 5.627 7.34169 5.55434 7.47102 5.42502C7.60034 5.29569 7.673 5.12028 7.673 4.93739V2.17893C7.673 1.99603 7.60034 1.82062 7.47102 1.6913C7.34169 1.56197 7.16628 1.48931 6.98339 1.48931ZM6.98339 0.110085C7.53208 0.110085 8.05829 0.328052 8.44628 0.716035C8.83426 1.10402 9.05223 1.63024 9.05223 2.17893V2.86854H23.5341C23.915 2.86854 24.2237 3.17729 24.2237 3.55816C24.2237 3.93902 23.915 4.24777 23.5341 4.24777H9.05223V4.93739C9.05223 5.48608 8.83426 6.01229 8.44628 6.40028C8.05829 6.78826 7.53208 7.00623 6.98339 7.00623C6.43469 7.00623 5.90848 6.78826 5.52049 6.40028C5.13251 6.01229 4.91454 5.48608 4.91454 4.93739V4.24777H1.46647C1.08561 4.24777 0.776855 3.93902 0.776855 3.55816C0.776855 3.17729 1.08561 2.86854 1.46647 2.86854H4.91454V2.17893C4.91454 1.63024 5.13251 1.10402 5.52049 0.716035C5.90848 0.328052 6.43469 0.110085 6.98339 0.110085ZM18.0172 8.38546C17.8343 8.38546 17.6589 8.45811 17.5296 8.58744C17.4003 8.71677 17.3276 8.89217 17.3276 9.07507V11.8335C17.3276 12.0164 17.4003 12.1918 17.5296 12.3212C17.6589 12.4505 17.8343 12.5231 18.0172 12.5231C18.2001 12.5231 18.3755 12.4505 18.5048 12.3212C18.6342 12.1918 18.7068 12.0164 18.7068 11.8335V9.07507C18.7068 8.89217 18.6342 8.71677 18.5048 8.58744C18.3755 8.45811 18.2001 8.38546 18.0172 8.38546ZM18.0172 7.00623C18.5659 7.00623 19.0921 7.2242 19.4801 7.61218C19.8681 8.00016 20.0861 8.52638 20.0861 9.07507V9.76469H23.5341C23.915 9.76469 24.2237 10.0734 24.2237 10.4543C24.2237 10.8352 23.915 11.1439 23.5341 11.1439H20.0861V11.8335C20.0861 12.3822 19.8681 12.9084 19.4801 13.2964C19.0921 13.6844 18.5659 13.9024 18.0172 13.9024C17.4685 13.9024 16.9423 13.6844 16.5543 13.2964C16.1663 12.9084 15.9484 12.3822 15.9484 11.8335V11.1439H1.46647C1.08561 11.1439 0.776855 10.8352 0.776855 10.4543C0.776855 10.0734 1.08561 9.76469 1.46647 9.76469H15.9484V9.07507C15.9484 8.52638 16.1663 8.00016 16.5543 7.61218C16.9423 7.2242 17.4685 7.00623 18.0172 7.00623ZM6.98339 15.2816C6.80049 15.2816 6.62508 15.3543 6.49575 15.4836C6.36643 15.6129 6.29377 15.7883 6.29377 15.9712V18.7297C6.29377 18.9126 6.36643 19.088 6.49575 19.2173C6.62508 19.3466 6.80049 19.4193 6.98339 19.4193C7.16628 19.4193 7.34169 19.3466 7.47102 19.2173C7.60034 19.088 7.673 18.9126 7.673 18.7297V15.9712C7.673 15.7883 7.60034 15.6129 7.47102 15.4836C7.34169 15.3543 7.16628 15.2816 6.98339 15.2816ZM9.05223 18.0401V18.7297C9.05223 19.2784 8.83426 19.8046 8.44628 20.1926C8.05829 20.5805 7.53208 20.7985 6.98339 20.7985C6.4347 20.7985 5.90848 20.5805 5.52049 20.1926C5.13251 19.8046 4.91454 19.2784 4.91454 18.7297V18.0401H1.46647C1.08561 18.0401 0.776855 17.7313 0.776855 17.3504C0.776855 16.9696 1.08561 16.6608 1.46647 16.6608H4.91454V15.9712C4.91454 15.4225 5.13251 14.8963 5.52049 14.5083C5.90848 14.1203 6.43469 13.9024 6.98339 13.9024C7.53208 13.9024 8.05829 14.1203 8.44628 14.5083C8.83426 14.8963 9.05223 15.4225 9.05223 15.9712V16.6608H23.5341C23.915 16.6608 24.2237 16.9696 24.2237 17.3504C24.2237 17.7313 23.915 18.0401 23.5341 18.0401H9.05223Z" fill="white"/>
</svg>
