<svg width="18" height="18" viewBox="0 0 18 18" fill="none" xmlns="http://www.w3.org/2000/svg">
<path d="M0.599548 17.6031C0.745878 17.1673 0.895992 16.7332 1.03812 16.2962C1.45328 15.0229 1.86648 13.7489 2.27771 12.4742C2.28781 12.4432 2.30168 12.4135 2.30631 12.4013L5.8876 15.9702C5.84765 15.984 5.78332 16.0079 5.7194 16.0288C4.07978 16.5557 2.43988 17.0823 0.7997 17.6086C0.754175 17.6264 0.709799 17.6469 0.666825 17.6702L0.599548 17.6031Z" fill="#0A2827"/>
<path d="M7.15172 14.7261L3.55109 11.1358L11.9095 2.80681L15.5123 6.39453C12.7345 9.16264 9.94768 11.9398 7.15172 14.7261Z" fill="#0A2827"/>
<path d="M16.7724 5.15211L13.1983 1.59036C13.4712 1.29956 13.7344 0.979421 14.0393 0.706633C14.3214 0.455216 14.744 0.486224 15.0426 0.726746C15.1032 0.775999 15.1612 0.828452 15.2162 0.883882C15.9599 1.62389 16.7028 2.36417 17.4448 3.10474C17.912 3.5707 17.9124 4.01612 17.4448 4.48083C17.2219 4.70543 16.9978 4.92919 16.7724 5.15211Z" fill="#0A2827"/>
</svg>
