<svg width="17" height="16" viewBox="0 0 17 16" fill="none" xmlns="http://www.w3.org/2000/svg">
<path fill-rule="evenodd" clip-rule="evenodd" d="M7.9939 1.77475C6.52823 1.77475 5.12259 2.35698 4.0862 3.39337C3.04982 4.42975 2.46758 5.83539 2.46758 7.30106C2.46758 8.76673 3.04982 10.1724 4.0862 11.2088C5.12259 12.2451 6.52823 12.8274 7.9939 12.8274C9.45957 12.8274 10.8652 12.2451 11.9016 11.2088C12.938 10.1724 13.5202 8.76673 13.5202 7.30106C13.5202 5.83539 12.938 4.42975 11.9016 3.39337C10.8652 2.35698 9.45957 1.77475 7.9939 1.77475ZM3.04415 2.35132C4.3569 1.03856 6.13738 0.301064 7.9939 0.301064C9.85041 0.301064 11.6309 1.03856 12.9436 2.35132C14.2564 3.66407 14.9939 5.44455 14.9939 7.30106C14.9939 8.90911 14.4406 10.4601 13.4394 11.6995L16.2522 14.5173L15.2092 15.5585L12.3979 12.7421C11.1576 13.7461 9.60434 14.3011 7.9939 14.3011C6.13738 14.3011 4.3569 13.5636 3.04415 12.2508C1.73139 10.9381 0.993896 9.15758 0.993896 7.30106C0.993896 5.44455 1.73139 3.66407 3.04415 2.35132Z" fill="#0A2827"/>
</svg>
