<svg width="18" height="12" viewBox="0 0 18 12" fill="none" xmlns="http://www.w3.org/2000/svg">
<path d="M1.28342 8.07364C2.05977 4.34557 5.30518 1.69665 8.95584 1.69665C12.6054 1.69665 15.8508 4.34557 16.6283 8.07364C16.6591 8.22157 16.7474 8.35121 16.8737 8.43404C17.0001 8.51688 17.1542 8.54611 17.3022 8.51531C17.4501 8.48452 17.5797 8.39622 17.6626 8.26984C17.7454 8.14346 17.7746 7.98935 17.7438 7.84142C16.8594 3.60109 13.1597 0.558304 8.95584 0.558304C4.75195 0.558304 1.05233 3.60109 0.167843 7.84142C0.137048 7.98935 0.166282 8.14346 0.249112 8.26984C0.331943 8.39622 0.461585 8.48452 0.60952 8.51531C0.757454 8.54611 0.911563 8.51688 1.03794 8.43404C1.16432 8.35121 1.25262 8.22157 1.28342 8.07364ZM8.94446 3.97333C10.0011 3.97333 11.0145 4.39309 11.7617 5.14027C12.5089 5.88746 12.9287 6.90085 12.9287 7.95753C12.9287 9.0142 12.5089 10.0276 11.7617 10.7748C11.0145 11.522 10.0011 11.9417 8.94446 11.9417C7.88778 11.9417 6.87439 11.522 6.12721 10.7748C5.38003 10.0276 4.96026 9.0142 4.96026 7.95753C4.96026 6.90085 5.38003 5.88746 6.12721 5.14027C6.87439 4.39309 7.88778 3.97333 8.94446 3.97333Z" fill="#0A2827"/>
</svg>
