<svg width="17" height="17" viewBox="0 0 14 17" fill="none" xmlns="http://www.w3.org/2000/svg">
<path d="M3.01009 16.1309C2.96131 16.115 2.91296 16.0978 2.86376 16.0835C2.25868 15.9109 1.86636 15.4081 1.81675 14.7611C1.75031 13.897 1.67336 13.0338 1.60272 12.1702C1.53544 11.3481 1.47237 10.5255 1.40425 9.70341C1.33613 8.88127 1.26338 8.06919 1.194 7.25376C1.15195 6.7702 1.11747 6.28622 1.07837 5.79093H13.1207C13.106 6.00422 13.0942 6.21541 13.0766 6.42618C13.0076 7.24287 12.9353 8.06039 12.8663 8.87582C12.7974 9.69125 12.7355 10.51 12.6678 11.3267C12.6001 12.1434 12.5287 12.9706 12.4576 13.7927C12.4256 14.1669 12.4071 14.5432 12.3567 14.9149C12.2726 15.5275 11.8609 15.9624 11.2613 16.1007C11.237 16.1085 11.2135 16.1186 11.1911 16.1309H3.01009ZM4.74166 10.4807V8.23848C4.74166 7.89362 4.7467 7.54834 4.74166 7.20348C4.73661 6.85862 4.45783 6.66167 4.12817 6.75135C3.91792 6.80875 3.79977 6.97385 3.79977 7.22694C3.79977 9.3964 3.79977 11.5656 3.79977 13.7345C3.80095 13.7969 3.80956 13.8589 3.82541 13.9193C3.86746 14.0823 3.97679 14.1778 4.13489 14.2189C4.47927 14.3085 4.74208 14.0973 4.7425 13.7265C4.74306 12.6446 4.74278 11.5626 4.74166 10.4807ZM7.57406 10.4849V9.05768C7.57406 8.45135 7.57406 7.84501 7.57406 7.23868C7.57406 6.97343 7.45759 6.8075 7.24188 6.75051C6.89287 6.65874 6.63049 6.87286 6.63049 7.25334C6.63049 9.06187 6.63049 10.8704 6.63049 12.6789C6.63049 13.0343 6.63049 13.3913 6.63049 13.7454C6.63049 13.9356 6.6944 14.0936 6.87479 14.1853C7.21791 14.3592 7.57322 14.1304 7.57364 13.7299C7.57574 12.6488 7.57406 11.5668 7.57406 10.4849ZM9.46247 10.4912V13.6419C9.46247 13.6838 9.46247 13.7257 9.46247 13.7676C9.47551 14.1124 9.76438 14.3178 10.0932 14.2155C10.3034 14.1506 10.406 13.9809 10.406 13.6951C10.406 11.558 10.406 9.42098 10.406 7.28393C10.4076 7.24201 10.4066 7.20003 10.4031 7.15822C10.3929 7.05344 10.3486 6.95483 10.2771 6.87739C10.2055 6.79995 10.1105 6.74789 10.0066 6.72914C9.83839 6.69478 9.62268 6.78319 9.54026 6.94913C9.49104 7.05174 9.46519 7.16392 9.46457 7.27765C9.46037 8.3491 9.46247 9.41847 9.46247 10.4912V10.4912Z" fill="#0A2827"/>
<path d="M7.13385 4.77603H0.69829C0.635217 4.77603 0.572144 4.77603 0.509492 4.77351C0.162169 4.75424 0.0166782 4.6059 0.0213036 4.25978C0.0267699 3.86338 -0.000560326 3.4607 0.0595694 3.07226C0.159645 2.42192 0.758839 1.95554 1.42195 1.95429C2.31394 1.95233 3.20566 1.95233 4.09709 1.95429C4.20347 1.95429 4.25309 1.92831 4.28505 1.82187C4.36536 1.55286 4.45829 1.28677 4.5529 1.02195C4.76567 0.431536 5.27782 0.0741044 5.90855 0.0715902C6.7114 0.0715902 7.51397 0.0715902 8.31626 0.0715902C8.59861 0.068712 8.87509 0.151894 9.10866 0.309991C9.34224 0.468089 9.52175 0.693548 9.62314 0.95616C9.73499 1.24236 9.83044 1.53526 9.92126 1.82858C9.95196 1.92789 9.99653 1.95429 10.0966 1.95429C10.9779 1.95093 11.8591 1.95093 12.7402 1.95429C13.5665 1.95429 14.1816 2.56649 14.1837 3.38737C14.1837 3.6853 14.1837 3.98323 14.1837 4.28115C14.1837 4.58537 13.9895 4.77603 13.6792 4.77645C11.4979 4.77673 9.31618 4.77659 7.13385 4.77603ZM5.24586 1.94297H8.95666C8.88644 1.73346 8.82253 1.53568 8.75357 1.33957C8.67662 1.12126 8.51095 1.01524 8.28599 1.01399C7.49547 1.0098 6.70481 1.0098 5.91402 1.01399C5.70377 1.01399 5.5381 1.10994 5.46157 1.31485C5.38504 1.51975 5.31945 1.72675 5.24586 1.94297V1.94297Z" fill="#0A2827"/>
</svg>
