<svg width="50" height="35" viewBox="0 0 50 35" fill="none" xmlns="http://www.w3.org/2000/svg">
<path d="M17.6613 21.6589C11.9371 21.6589 0.53772 24.521 0.53772 30.2207V34.5016H34.7848V30.2207C34.7848 24.521 23.3854 21.6589 17.6613 21.6589ZM6.26188 29.6092C8.31671 28.1903 13.2825 26.5514 17.6613 26.5514C22.04 26.5514 27.0058 28.1903 29.0607 29.6092H6.26188ZM17.6613 17.378C22.3825 17.378 26.2231 13.5375 26.2231 8.81627C26.2231 4.09506 22.3825 0.254486 17.6613 0.254486C12.9401 0.254486 9.0995 4.09506 9.0995 8.81627C9.0995 13.5375 12.9401 17.378 17.6613 17.378ZM17.6613 5.14693C19.6916 5.14693 21.3306 6.7859 21.3306 8.81627C21.3306 10.8466 19.6916 12.4856 17.6613 12.4856C15.6309 12.4856 13.9919 10.8466 13.9919 8.81627C13.9919 6.7859 15.6309 5.14693 17.6613 5.14693ZM34.8827 21.8057C37.7203 23.8605 39.6773 26.6003 39.6773 30.2207V34.5016H49.4622V30.2207C49.4622 25.2793 40.9004 22.4662 34.8827 21.8057ZM32.3386 17.378C37.0598 17.378 40.9004 13.5375 40.9004 8.81627C40.9004 4.09506 37.0598 0.254486 32.3386 0.254486C31.0177 0.254486 29.7945 0.572495 28.6693 1.11066C30.2104 3.2878 31.1155 5.95419 31.1155 8.81627C31.1155 11.6783 30.2104 14.3447 28.6693 16.5219C29.7945 17.06 31.0177 17.378 32.3386 17.378Z" fill="white"/>
</svg>
